<svg aria-hidden="true" style="position:absolute;width:0;height:0" xmlns="http://www.w3.org/2000/svg" overflow="hidden"><defs><symbol id="icon-facebook" viewBox="0 0 32 32"><path fill="var(--color1, #1877f2)" d="M31.997 15.999C31.997 7.163 24.834 0 15.998 0S-.001 7.163-.001 15.999c0 7.985 5.851 14.604 13.499 15.804v-11.18H9.436v-4.625h4.062v-3.525c0-4.01 2.389-6.225 6.043-6.225 1.75 0 3.581.313 3.581.313v3.937h-2.017c-1.987 0-2.607 1.233-2.607 2.498v3.001h4.437l-.709 4.625h-3.728v11.18c7.649-1.2 13.499-7.819 13.499-15.804z"/></symbol><symbol id="icon-github" viewBox="0 0 32 32"><path fill="#2ecc71" d="M16 .396c-8.84 0-16 7.164-16 16 0 7.071 4.584 13.067 10.94 15.18.8.151 1.093-.344 1.093-.769 0-.38-.013-1.387-.02-2.72-4.451.965-5.389-2.147-5.389-2.147-.728-1.847-1.78-2.34-1.78-2.34-1.449-.992.112-.972.112-.972 1.607.112 2.451 1.648 2.451 1.648 1.427 2.447 3.745 1.74 4.66 1.331.144-1.035.556-1.74 1.013-2.14-3.553-.4-7.288-1.776-7.288-7.907 0-1.747.62-3.173 1.647-4.293-.18-.404-.72-2.031.14-4.235 0 0 1.34-.429 4.4 1.64 1.28-.356 2.64-.532 4-.54 1.36.008 2.72.184 4 .54 3.04-2.069 4.38-1.64 4.38-1.64.86 2.204.32 3.831.16 4.235 1.02 1.12 1.64 2.547 1.64 4.293 0 6.147-3.74 7.5-7.3 7.893.56.48 1.08 1.461 1.08 2.96 0 2.141-.02 3.861-.02 4.381 0 .42.28.92 1.1.76C27.42 29.455 32 23.455 32 16.395c0-8.836-7.164-16-16-16z"/></symbol><symbol id="icon-gmail" viewBox="0 0 32 32"><path fill="var(--color2, #2ecc71)" d="M32 6v20c0 1.133-.867 2-2 2h-2V9.849l-12 8.617L4 9.849V28H2c-1.135 0-2-.867-2-2V6c0-.567.216-1.067.575-1.424A1.98 1.98 0 012 4h.667L16 13.667 29.333 4H30c.567 0 1.067.216 1.425.576.36.357.575.857.575 1.424z"/></symbol><symbol id="icon-linkedin" viewBox="0 0 32 32"><path fill="var(--color3, #2ecc71)" d="M27.263 27.269h-4.739v-7.425c0-1.771-.036-4.049-2.469-4.049-2.471 0-2.848 1.927-2.848 3.919v7.556h-4.739V12.001h4.552v2.081h.061c.636-1.2 2.183-2.467 4.493-2.467 4.801 0 5.689 3.16 5.689 7.273zM7.116 9.911a2.75 2.75 0 01-2.751-2.753 2.752 2.752 0 112.751 2.753zm2.376 17.358H4.74V12h4.752zM29.633 0H2.361C1.056 0 0 1.032 0 2.305v27.389c0 1.275 1.056 2.305 2.361 2.305h27.268c1.304 0 2.371-1.031 2.371-2.305V2.305C32 1.032 30.933 0 29.629 0z"/></symbol><symbol id="icon-medium" viewBox="0 0 32 32"><path fill="#2ecc71" d="M0 0v32h32V0zm26.584 7.581l-1.716 1.645a.5.5 0 00-.191.486v-.003 12.089a.502.502 0 00.189.481l.001.001 1.676 1.645v.361h-8.429v-.36l1.736-1.687c.171-.171.171-.22.171-.48v-9.773l-4.827 12.26h-.653L8.92 11.986v8.217a1.132 1.132 0 00.311.943l2.259 2.739v.361H5.087v-.36l2.26-2.74a1.09 1.09 0 00.289-.949l.001.007v-9.501a.83.83 0 00-.27-.702L7.366 10 5.358 7.581v-.36h6.232l4.817 10.564L20.642 7.22h5.941z"/></symbol><symbol id="icon-reddit" viewBox="0 0 32 32"><path fill="var(--color4, #2ecc71)" d="M2.939 18.732c-.08.368-.121.747-.121 1.129 0 4.591 5.869 8.332 13.085 8.332 7.213 0 13.083-3.739 13.083-8.332a5.53 5.53 0 00-.109-1.079l-.02-.043a.609.609 0 01-.039-.22c-.403-1.567-1.489-2.988-3.061-4.137a.566.566 0 01-.168-.093c-.035-.027-.06-.056-.089-.085-2.389-1.645-5.808-2.677-9.595-2.677-3.753 0-7.139 1.012-9.528 2.628a.531.531 0 01-.238.165C4.531 15.469 3.416 16.903 3 18.484a.619.619 0 01-.049.228zm13.03 7.255c-2.392 0-4.076-.519-5.151-1.596a.6.6 0 010-.843.626.626 0 01.847 0c.84.839 2.247 1.257 4.304 1.257 2.056 0 3.455-.4 4.292-1.239.22-.219.6-.219.839 0 .22.24.22.62 0 .86-1.079 1.077-2.753 1.597-5.149 1.597zm-4.808-10.098a2.259 2.259 0 00-2.236 2.236c0 1.213 1.017 2.2 2.236 2.2s2.201-.987 2.201-2.2c0-1.216-.985-2.236-2.201-2.236zm9.644 0a2.26 2.26 0 00-2.237 2.236c0 1.213 1.019 2.2 2.237 2.2s2.201-.987 2.201-2.2c0-1.216-.985-2.236-2.201-2.236zm6.064-2.126c1.383 1.111 2.4 2.428 2.919 3.872.6-.448.959-1.152.959-1.932a2.424 2.424 0 00-3.877-1.937zm-23.254-.479a2.426 2.426 0 00-1.564 4.276c.535-1.439 1.563-2.737 2.951-3.835a2.429 2.429 0 00-1.385-.439zm12.289 16.105c-7.875 0-14.279-4.273-14.279-9.523 0-.367.031-.725.091-1.079A3.63 3.63 0 010 15.702c0-1.995 1.636-3.617 3.633-3.617.899 0 1.737.328 2.396.909 2.475-1.588 5.809-2.588 9.483-2.656l2.416-7.365.539.127s.021 0 .021.003l5.631 1.324a2.999 2.999 0 012.753-1.813 2.983 2.983 0 012.975 2.979c0 1.643-1.337 2.979-2.975 2.979s-2.973-1.339-2.973-2.973l-5.135-1.216-1.956 5.969c3.533.14 6.729 1.139 9.125 2.695a3.549 3.549 0 012.444-.959 3.621 3.621 0 013.624 3.615c0 1.316-.72 2.515-1.837 3.153.039.34.079.659.079.999-.02 5.251-6.408 9.524-14.293 9.524zM26.809 3.807a1.786 1.786 0 100 3.571c.976 0 1.773-.8 1.773-1.779 0-.977-.797-1.776-1.796-1.776z"/></symbol><symbol id="icon-telegram" viewBox="0 0 32 32"><path fill="var(--color5, #2ca5e0)" d="M31.88 5.053l-4.813 22.733c-.333 1.613-1.307 2-2.667 1.253l-7.333-5.427-3.547 3.427c-.4.4-.733.747-1.467.747-.96 0-.8-.36-1.12-1.267L8.4 18.266l-7.267-2.267c-1.573-.467-1.587-1.547.347-2.333L29.827 2.733c1.293-.573 2.533.32 2.053 2.32z"/></symbol><symbol id="icon-twitter" viewBox="0 0 32 32"><path fill="var(--color6, #2ecc71)" d="M31.939 6.092a13.31 13.31 0 01-3.767 1.033 6.613 6.613 0 002.884-3.631 13.55 13.55 0 01-4.169 1.579A6.56 6.56 0 0015.539 9.55c0 .52.06 1.02.169 1.499-5.453-.257-10.287-2.876-13.521-6.835a6.432 6.432 0 00-.888 3.3 6.56 6.56 0 002.917 5.461 6.554 6.554 0 01-2.971-.821v.081a6.564 6.564 0 005.261 6.436 6.663 6.663 0 01-2.949.113 6.582 6.582 0 006.139 4.556 13.156 13.156 0 01-8.136 2.807c-.52 0-1.039-.031-1.56-.089a18.657 18.657 0 0010.076 2.945c12.072 0 18.665-9.995 18.665-18.648 0-.279 0-.56-.02-.84 1.281-.919 2.4-2.08 3.28-3.397z"/></symbol><symbol id="icon-whatsapp" viewBox="0 0 32 32"><path fill="var(--color7, #25d366)" d="M23.331 19.176c-.401-.2-2.356-1.156-2.72-1.288-.364-.135-.631-.2-.897.2-.263.393-1.028 1.285-1.259 1.549-.233.26-.465.28-.861.1-.4-.2-1.684-.62-3.204-1.98-1.184-1.06-1.979-2.36-2.213-2.76-.232-.4-.025-.62.173-.82.181-.18.401-.46.601-.697.195-.241.259-.401.396-.661.133-.28.065-.5-.033-.699-.1-.2-.896-2.16-1.229-2.941-.32-.779-.649-.68-.896-.68-.229-.02-.495-.02-.761-.02s-.697.099-1.063.479c-.364.4-1.393 1.36-1.393 3.3s1.427 3.82 1.625 4.1c.199.26 2.807 4.26 6.8 5.98.952.4 1.693.64 2.272.839.952.303 1.82.26 2.507.161.765-.121 2.356-.961 2.688-1.901.34-.94.34-1.72.24-1.9-.099-.18-.36-.28-.76-.46zM16.081 29h-.021c-2.36 0-4.699-.64-6.74-1.84l-.48-.285-5 1.3 1.34-4.86-.319-.5a13.156 13.156 0 01-2.021-7.013c0-7.26 5.94-13.18 13.256-13.18 3.539 0 6.86 1.38 9.361 3.88 2.5 2.479 3.879 5.8 3.879 9.32-.005 7.259-5.947 13.18-13.247 13.18zM27.36 4.599C24.32 1.66 20.32 0 16.06 0 7.284 0 .139 7.112.135 15.857c0 2.795.732 5.52 2.127 7.927L.001 32l8.447-2.203a16.087 16.087 0 007.613 1.929h.008c8.78 0 15.928-7.115 15.932-15.861 0-4.235-1.653-8.22-4.66-11.215z"/></symbol><symbol id="icon-discord" viewBox="0 0 32 32"><path fill="var(--color1, #2ecc71)" d="M26.963 0c1.875 0 3.387 1.516 3.476 3.3V32l-3.569-3.031-1.96-1.784-2.139-1.864.893 2.94H4.947c-1.869 0-3.387-1.42-3.387-3.301V3.307C1.56 1.523 3.08.004 4.953.004h22zm-8.158 7.577h-.04l-.269.267c2.764.8 4.101 2.049 4.101 2.049-1.781-.891-3.387-1.336-4.992-1.516-1.16-.18-2.32-.085-3.3 0h-.267c-.627 0-1.96.267-3.747.98-.623.271-.98.448-.98.448s1.336-1.336 4.28-2.049l-.18-.18s-2.229-.085-4.636 1.693c0 0-2.407 4.192-2.407 9.36 0 0 1.333 2.32 4.991 2.408 0 0 .533-.711 1.073-1.336-2.053-.624-2.853-1.872-2.853-1.872s.179.088.447.267h.08c.04 0 .059.02.08.04v.008c.021.021.04.04.08.04.44.181.88.36 1.24.533.621.269 1.42.537 2.4.715 1.24.18 2.661.267 4.28 0 .8-.18 1.6-.356 2.4-.713.52-.267 1.16-.533 1.863-.983 0 0-.8 1.248-2.94 1.872.44.621 1.06 1.333 1.06 1.333 3.659-.08 5.08-2.4 5.16-2.301 0-5.16-2.42-9.36-2.42-9.36-2.18-1.619-4.22-1.68-4.58-1.68zm.224 5.884c.937 0 1.693.8 1.693 1.78 0 .987-.76 1.787-1.693 1.787s-1.693-.8-1.693-1.779c.003-.987.764-1.784 1.693-1.788zm-6.057 0c.933 0 1.688.8 1.688 1.78 0 .987-.76 1.787-1.693 1.787s-1.693-.8-1.693-1.779c0-.987.76-1.784 1.699-1.788z"/></symbol><symbol id="icon-html" viewBox="0 0 128 128"><path fill="#E44D26" d="M9.032 2l10.005 112.093 44.896 12.401 45.02-12.387L118.968 2H9.032zm89.126 26.539l-.627 7.172L97.255 39H44.59l1.257 14h50.156l-.336 3.471-3.233 36.119-.238 2.27L64 102.609v.002l-.034.018-28.177-7.423L33.876 74h13.815l.979 10.919L63.957 89H64v-.546l15.355-3.875L80.959 67H33.261l-3.383-38.117L29.549 25h68.939l-.33 3.539z"/></symbol><symbol id="icon-css" viewBox="0 0 128 128"><path fill="#1572B6" d="M8.76 1l10.055 112.883 45.118 12.58 45.244-12.626L119.24 1H8.76zm89.591 25.862l-3.347 37.605.01.203-.014.467v-.004l-2.378 26.294-.262 2.336L64 101.607v.001l-.022.019-28.311-7.888L33.75 72h13.883l.985 11.054 15.386 4.17-.004.008v-.002l15.443-4.229L81.075 65H48.792l-.277-3.043-.631-7.129L47.553 51h34.749l1.264-14H30.64l-.277-3.041-.63-7.131L29.401 23h69.281l-.331 3.862z"/></symbol><symbol id="icon-js" viewBox="0 0 128 128"><path fill="#F0DB4F" d="M2 1v125h125V1H2zm66.119 106.513c-1.845 3.749-5.367 6.212-9.448 7.401-6.271 1.44-12.269.619-16.731-2.059-2.986-1.832-5.318-4.652-6.901-7.901l9.52-5.83c.083.035.333.487.667 1.071 1.214 2.034 2.261 3.474 4.319 4.485 2.022.69 6.461 1.131 8.175-2.427 1.047-1.81.714-7.628.714-14.065C58.433 78.073 58.48 68 58.48 58h11.709c0 11 .06 21.418 0 32.152.025 6.58.596 12.446-2.07 17.361zm48.574-3.308c-4.07 13.922-26.762 14.374-35.83 5.176-1.916-2.165-3.117-3.296-4.26-5.795 4.819-2.772 4.819-2.772 9.508-5.485 2.547 3.915 4.902 6.068 9.139 6.949 5.748.702 11.531-1.273 10.234-7.378-1.333-4.986-11.77-6.199-18.873-11.531-7.211-4.843-8.901-16.611-2.975-23.335 1.975-2.487 5.343-4.343 8.877-5.235l3.688-.477c7.081-.143 11.507 1.727 14.756 5.355.904.916 1.642 1.904 3.022 4.045-3.772 2.404-3.76 2.381-9.163 5.879-1.154-2.486-3.069-4.046-5.093-4.724-3.142-.952-7.104.083-7.926 3.403-.285 1.023-.226 1.975.227 3.665 1.273 2.903 5.545 4.165 9.377 5.926 11.031 4.474 14.756 9.271 15.672 14.981.882 4.916-.213 8.105-.38 8.581z"/></symbol><symbol id="icon-php" viewBox="0 0 128 128"><path fill="#6181B6" d="M64 33.039C30.26 33.039 2.906 46.901 2.906 64S30.26 94.961 64 94.961 125.094 81.099 125.094 64 97.74 33.039 64 33.039zM48.103 70.032c-1.458 1.364-3.077 1.927-4.86 2.507-1.783.581-4.052.461-6.811.461h-6.253l-1.733 10h-7.301l6.515-34H41.7c4.224 0 7.305 1.215 9.242 3.432 1.937 2.217 2.519 5.364 1.747 9.337-.319 1.637-.856 3.159-1.614 4.515a15.118 15.118 0 01-2.972 3.748zM69.414 73l2.881-14.42c.328-1.688.208-2.942-.361-3.555-.57-.614-1.782-1.025-3.635-1.025h-5.79l-3.731 19h-7.244l6.515-33h7.244l-1.732 9h6.453c4.061 0 6.861.815 8.402 2.231s2.003 3.356 1.387 6.528L76.772 73h-7.358zm40.259-11.178c-.318 1.637-.856 3.133-1.613 4.488-.758 1.357-1.748 2.598-2.971 3.722-1.458 1.364-3.078 1.927-4.86 2.507-1.782.581-4.053.461-6.812.461h-6.253l-1.732 10h-7.301l6.514-34h14.041c4.224 0 7.305 1.215 9.241 3.432 1.935 2.217 2.518 5.418 1.746 9.39zM95.919 54h-5.001l-2.727 14h4.442c2.942 0 5.136-.29 6.576-1.4 1.442-1.108 2.413-2.828 2.918-5.421.484-2.491.264-4.434-.66-5.458-.925-1.024-2.774-1.721-5.548-1.721zm-56.985 0h-5.002l-2.727 14h4.441c2.943 0 5.136-.29 6.577-1.4 1.441-1.108 2.413-2.828 2.917-5.421.484-2.491.264-4.434-.66-5.458S41.708 54 38.934 54z"/></symbol><symbol id="icon-laravel" viewBox="0 0 128 128"><path fill="#FD4F31" d="M14.887 18.316l2.72 4.523 2.507 4.182c1.301 2.17 2.602 4.34 3.901 6.51l2.662 4.44 3.882 6.465 4.749 7.936c1.369 2.285 2.741 4.569 4.112 6.853l.184.267c.199.062.357.009.521-.03 1.807-.434 3.614-.865 5.421-1.296 2.931-.7 5.862-1.398 8.792-2.099l4.592-1.098c2.962-.708 5.926-1.414 8.889-2.124 2.996-.716 5.99-1.436 8.985-2.154 1.514-.363 3.028-.725 4.543-1.086l8.792-2.096 9.575-2.28.517-.14-.141-.28c-.869-1.232-1.742-2.462-2.613-3.693l-2.581-3.654-2.76-3.898-2.639-3.737-2.614-3.693-2.701-3.816-2.646-3.731-1.396-1.969a3.647 3.647 0 01-.497-.982c-.275-.856.039-1.425.538-1.846a3.018 3.018 0 011.1-.593 17.382 17.382 0 011.702-.432c1.151-.217 2.309-.402 3.465-.594 1.304-.217 2.609-.424 3.915-.639.825-.136 1.65-.279 2.476-.419l3.367-.567a927.64 927.64 0 013.269-.543l3.568-.583 2.477-.417c.94-.157 1.882-.314 2.823-.468 1.174-.191 2.346-.384 3.521-.568.698-.109 1.399-.148 2.093.052.521.151.994.395 1.436.706l.61.426c.061-.141-.027-.217-.067-.298a14.062 14.062 0 00-3.606-4.592 13.894 13.894 0 00-4.773-2.616c-1.04-.33-2.109-.483-3.199-.565l-.535-.08H24.561l-.429.069c-.954.075-1.892.217-2.815.47a13.74 13.74 0 00-5.401 2.885 13.768 13.768 0 00-2.435 2.727 13.743 13.743 0 00-2.156 5.189l.461.803c1.033 1.726 2.067 3.449 3.101 5.173zm5.241 87.825c.97.373 1.972.635 3.006.762l1.047.047c.163.021.32.05.48.05h32.288c-.052 0-.099-.149-.157-.25-1.271-2.168-2.554-4.296-3.81-6.472a1113.602 1113.602 0 01-4.705-8.233c-1.664-2.944-3.313-5.89-4.965-8.842a4986.932 4986.932 0 01-4.698-8.42c-.944-1.698-1.883-3.396-2.825-5.095l-.252-.388-.458.091c-.908.234-1.814.471-2.721.709-1.262.332-2.522.67-3.785 1-2.834.738-5.669 1.471-8.503 2.207-2.883.748-5.704 1.498-8.589 2.243-.175.046.519.062-.481.092v17.905c1 .104.136.294.158.477.066.53.085 1.064.179 1.59a13.427 13.427 0 002.224 5.378c1.664 2.392 3.852 4.103 6.567 5.149zm-6.122-40.39l10.008-2.377 4.396-1.039c.732-.174 1.468-.341 2.194-.537.646-.175.727-.389.394-.973-.481-.844-.97-1.682-1.458-2.522l-4.288-7.383-4.287-7.385-4.364-7.513-3.736-6.427-1.553-2.781c-.1-.17.689-.371-.311-.461v40.135c0-.027.204-.05.333-.081l2.672-.656zm102.671 28.688c-1.308.465-2.615.933-3.923 1.401a31869.44 31869.44 0 00-8.93 3.202c-1.652.593-3.304 1.193-4.959 1.784-3.371 1.204-6.744 2.403-10.117 3.604-1.955.696-3.91 1.325-5.863 2.024-.535.193-1.063.546-1.593.546h22.431l.484-.046a12.14 12.14 0 001.691-.181 13.742 13.742 0 006.191-2.815 13.962 13.962 0 003.438-4.016c.92-1.606 1.466-3.329 1.728-5.153.023-.157.072-.328-.06-.491-.184-.014-.349.08-.518.141zm-1.927-30.121c-.99-1.353-1.98-2.704-2.968-4.058-1.362-1.869-2.723-3.74-4.083-5.609-.553-.759-1.113-1.512-1.654-2.279-.162-.231-.348-.292-.601-.224l-.145.042-7.517 1.823-4.489 1.089-8.782 2.133-8.687 2.111c-3.01.729-6.02 1.456-9.028 2.186-2.961.719-5.921 1.44-8.881 2.16l-8.589 2.085c-1.513.367-3.025.733-4.537 1.103-.223.054-.463.067-.699.247l.202.385c1.268 2.19 2.535 4.379 3.806 6.567 1.438 2.478 2.878 4.955 4.321 7.43 1.587 2.72 3.178 5.439 4.768 8.159.913 1.562 1.821 3.127 2.742 4.685a543.92 543.92 0 003.094 5.178c.312.515.666 1.006 1.023 1.49.24.323.537.599.887.81.36.218.75.286 1.159.194.212-.048.419-.118.624-.189l.754-.279c2.74-.938 5.48-1.875 8.223-2.809 2.139-.729 4.28-1.453 6.421-2.177 2.125-.72 4.251-1.438 6.376-2.155l6.329-2.137c2.157-.729 4.314-1.458 6.471-2.189 2.647-.898 5.294-1.8 7.942-2.696 2.553-.864 5.107-1.723 7.662-2.584.156-.053.329-.075.459-.247l.016-.372c0-5.296-.001-10.594.006-15.891a1.16 1.16 0 00-.246-.738c-.801-1.077-1.588-2.162-2.379-3.244zm-.439-49.907c-.595-.753-1.352-.992-2.279-.75-.404.106-.819.172-1.23.248-1.351.247-2.701.49-4.052.735-1.976.359-3.951.722-5.928 1.077-1.564.282-3.131.558-4.696.833l-6.281 1.099c-.264.046-.53.092-.783.173-.37.119-.478.351-.309.699.139.284.311.556.497.812 1.298 1.79 2.604 3.576 3.908 5.362 1.798 2.463 3.598 4.926 5.397 7.388 1.522 2.083 3.046 4.166 4.57 6.248 1.197 1.637 2.395 3.272 3.593 4.908l.237.286c3.447-.853 6.889-1.703 10.39-2.568l.024-.538c0-7.208-.001-14.415.006-21.622 0-.318-.078-.574-.277-.826-.875-1.103-1.732-2.219-2.597-3.33l-.19-.234zm2.795 34.922c-1.572.377-3.149.737-4.759 1.163.171.303 4.585 6.262 4.842 6.544l.162.089.018-.363v-2.51c.002-1.455.006-2.911.002-4.366 0-.178.049-.367-.072-.547l-.193-.01zM12.93 127v-17.133h3.633V124h6.949v3H12.93zm24.047 0l-1.242-4.078h-6.246L28.246 127h-3.914l6.047-17.203h4.441L40.891 127h-3.914zm-2.11-7.125c-1.148-3.695-1.795-5.785-1.939-6.27s-.248-.867-.311-1.148c-.258 1-.996 3.473-2.215 7.418h4.465zm11.813.551V127h-3.633v-17.133h4.992c2.328 0 4.051.424 5.168 1.271s1.676 2.135 1.676 3.861c0 1.008-.277 1.904-.832 2.689s-1.34 1.4-2.355 1.846c2.578 3.852 4.258 6.34 5.039 7.465h-4.031l-4.09-6.574H46.68zm0-2.953h1.172c1.148 0 1.996-.191 2.543-.574s.82-.984.82-1.805c0-.812-.279-1.391-.838-1.734s-1.424-.516-2.596-.516H46.68v4.629zM69.379 127l-1.242-4.078h-6.246L60.648 127h-3.914l6.047-17.203h4.441L73.293 127h-3.914zm-2.109-7.125c-1.148-3.695-1.795-5.785-1.939-6.27s-.248-.867-.311-1.148c-.258 1-.996 3.473-2.215 7.418h4.465zm17.953-10.008h3.668L83.066 127h-3.961l-5.812-17.133h3.668l3.223 10.195c.18.602.365 1.303.557 2.104s.311 1.357.357 1.67c.086-.719.379-1.977.879-3.773l3.246-10.196zM100.914 127h-9.867v-17.133h9.867v2.977H94.68v3.762h5.801v2.977H94.68V124h6.234v3zm3.574 0v-17.133h3.633V124h6.949v3h-10.582z"/></symbol><symbol id="icon-angular" viewBox="0 0 128 128"><path fill="#C4473A" d="M52.864 64h23.28L63.769 38.123zM63.81 1.026L4.553 21.88l9.363 77.637 49.957 27.457 50.214-27.828 9.36-77.635L63.81 1.026zM48.044 75l-7.265 18.176-13.581.056 36.608-81.079-.07-.153h-.064l.001-.133.063.133h.141l.123-.274V12h-.124l-.069.153 38.189 81.417-13.074-.287-8.042-18.58-17.173.082"/></symbol><symbol id="icon-jquery" viewBox="0 0 128 128"><path fill="#0868AC" d="M47.961 79.02l.193.094.344.166c.439.209.882.416 1.329.615l.281.125c.513.225 1.029.439 1.551.645l.378.148c.482.188.972.37 1.463.543l.184.063c.539.188 1.083.363 1.632.534l.395.117c.558.169 1.109.37 1.685.477 36.554 6.665 47.171-21.967 47.171-21.967-8.918 11.618-24.747 14.683-39.745 11.271-.568-.128-1.12-.306-1.674-.47l-.417-.126a51.381 51.381 0 01-1.612-.524l-.221-.08a51.147 51.147 0 01-1.421-.527l-.398-.156a43.031 43.031 0 01-1.534-.638l-.307-.136a61.098 61.098 0 01-1.294-.602l-.375-.18c-.336-.164-.669-.339-1.001-.51l-.668-.35a37.935 37.935 0 01-1.199-.673l-.405-.226a58.779 58.779 0 01-1.563-.958l-.421-.28a41.205 41.205 0 01-1.112-.739l-.358-.252c-.354-.25-.704-.503-1.051-.76l-.466-.353a47.401 47.401 0 01-.948-.74l-.423-.34a62.157 62.157 0 01-1.182-.995l-.129-.109A49.53 49.53 0 0143.399 60l-.35-.337c-.303-.287-.6-.577-.893-.874l-.35-.35a49.681 49.681 0 01-1.095-1.158l-.054-.058a44.217 44.217 0 01-1.111-1.264l-.291-.346c-.27-.325-.538-.655-.799-.988l-.293-.364a53.218 53.218 0 01-.923-1.229c-8.326-11.358-11.318-27.023-4.663-39.888l-5.899 7.482c-7.559 10.863-6.617 24.997-.844 36.541l.423.821.271.52.168.299.301.539c.179.316.362.63.55.944l.315.519c.208.336.421.668.64 1l.272.422c.301.448.609.896.926 1.336l.027.035.156.211c.275.379.558.753.844 1.123l.318.404c.255.321.516.641.78.959l.298.355c.355.419.717.835 1.087 1.242l.022.023.042.046c.36.394.73.778 1.104 1.164l.354.357c.29.292.584.579.882.865l.361.343c.397.374.798.741 1.208 1.101l.02.015.21.18c.361.312.729.623 1.099.928l.455.362c.302.242.608.481.916.716l.489.372c.34.25.682.496 1.027.737l.375.266.103.073c.328.226.663.442.998.659l.432.288c.513.325 1.035.646 1.562.956l.432.244c.388.223.777.442 1.172.656l.648.336.84.437zm3.693-36.795c.819 1.174 1.726 2.57 2.813 3.514.394.434.806.856 1.226 1.273l.324.318c.409.396.824.785 1.252 1.164l.052.044.012.013c.475.416.965.816 1.463 1.21l.333.26c.5.383 1.009.759 1.531 1.118l.045.033.698.46.332.22c.373.238.75.472 1.135.694l.16.093c.331.191.667.379 1.003.561l.356.187.702.363.106.048c.482.237.968.465 1.464.682l.323.133c.396.168.797.333 1.199.487l.514.188c.366.136.732.26 1.102.383l.499.16c.526.163 1.045.369 1.593.46 28.222 4.677 34.738-17.054 34.738-17.054-5.874 8.459-17.248 12.494-29.386 9.344a33.73 33.73 0 01-1.598-.462l-.481-.155c-.375-.121-.748-.25-1.118-.385l-.504-.188a39.777 39.777 0 01-1.204-.485l-.324-.138a32.331 32.331 0 01-1.472-.685l-.739-.376-.426-.219c-.314-.17-.626-.348-.934-.527l-.223-.127a35.907 35.907 0 01-1.132-.689l-.341-.229-.732-.484a37.97 37.97 0 01-1.525-1.115l-.343-.271c-5.313-4.193-9.524-9.927-11.527-16.428-2.098-6.74-1.646-14.308 1.989-20.449l-4.466 6.306c-5.466 7.865-5.169 18.396-.905 26.715a34.709 34.709 0 002.416 4.035zm29.747-9.731l.701.243.309.098c.333.104.662.226 1.005.29 15.583 3.011 19.811-7.997 20.936-9.617-3.703 5.331-9.925 6.61-17.56 4.757a19.346 19.346 0 01-1.848-.57 22.91 22.91 0 01-2.193-.91 22.678 22.678 0 01-3.846-2.347c-6.832-5.185-11.076-15.072-6.618-23.126l-2.412 3.324c-3.222 4.743-3.539 10.633-1.303 15.869 2.358 5.56 7.19 9.92 12.829 11.989zM66.359 96.295h-4.226a.556.556 0 00-.517.417l-1.5 6.94-1.5 6.94a.554.554 0 01-.516.417h-2.991c-2.959 0-2.617-2.047-2.011-4.851l.018-.085.066-.354.012-.066.135-.72.145-.771.154-.785.682-3.332.683-3.332a.336.336 0 00-.341-.419h-4.337a.55.55 0 00-.514.418l-.933 4.424-.932 4.425-.002.006-.086.412c-1.074 4.903-.79 9.58 5.048 9.727l.17.003h9.163a.554.554 0 00.516-.417l1.976-9.289 1.976-9.29c.049-.23-.103-.417-.338-.418zm-45.256-.049h-4.64a.562.562 0 00-.521.416l-.44 1.942-.44 1.942c-.051.229.098.416.333.416h4.676a.556.556 0 00.518-.417l.425-1.941.425-1.941c.049-.229-.101-.417-.336-.417zm-1.346 6.044H15.08a.563.563 0 00-.521.416l-.657 2.91-.656 2.909-.183.834-.631 2.97-.63 2.971c-.049.229-.15.599-.225.821 0 0-.874 2.6-2.343 2.57l-.184-.004-1.271-.023h-.001a.558.558 0 00-.524.407l-.485 2.039-.484 2.038c-.055.228.093.416.326.42.833.01 2.699.031 3.828.031 3.669 0 5.604-2.033 6.843-7.883l1.451-6.714 1.361-6.297c.049-.227-.103-.415-.337-.415zm86.117-1.574l-.194-.801-.191-.82-.097-.414c-.38-1.477-1.495-2.328-3.917-2.328l-3.77-.004-3.472-.005h-3.907a.552.552 0 00-.515.417l-.173.816-.204.964-.057.271-1.759 8.24-1.67 7.822c-.05.23-.066.512-.038.626.028.115.479.209.713.209h3.524c.235 0 .532-.042.66-.094s.317-.513.364-.742l.626-3.099.627-3.1.001-.005.084-.413.76-3.56.671-3.144a.555.555 0 01.515-.417l11.089-.005c.235.002.383-.185.33-.414zm14.275-7.24l-.854.003h-3.549a.904.904 0 00-.667.353l-7.849 11.498c-.132.194-.283.166-.335-.062l-.578-2.533a.562.562 0 00-.522-.416h-5.045c-.235 0-.374.184-.31.409l2.261 7.921c.064.226.069.596.011.824l-.985 3.833c-.059.228.085.413.32.413h4.987a.58.58 0 00.532-.413l.986-3.833a2.52 2.52 0 01.363-.755l12.742-16.911c.142-.188.065-.341-.169-.339l-1.339.008zm-40.086 9.919v-.004a.514.514 0 01-.499.441h-6.397c-.222 0-.334-.15-.301-.336l.006-.015-.004.002.003-.021.029-.109c.611-1.624 1.855-2.69 4.194-2.69 2.634-.001 3.148 1.285 2.969 2.732zm-1.877-7.384c-8.211 0-10.157 4.984-11.249 10.015-1.091 5.128-.998 9.921 7.5 9.921h1.03l.256-.001h.06l1.02-.003h.018c2.244-.009 4.495-.026 5.406-.033a.553.553 0 00.509-.42l.344-1.681.067-.327.41-2.006a.335.335 0 00-.341-.418h-7.639c-3.039 0-3.941-.807-3.608-3.181H84.18l-.001.001.008-.001a.503.503 0 00.445-.315l.029-.106-.001.001c1.813-6.839 1.293-11.445-6.474-11.446zm-38.81 7.358l-.116.409v.001l-.922 3.268-.922 3.267a.596.596 0 01-.543.411h-4.88c-3.702 0-4.604-2.896-3.702-7.166.901-4.368 2.668-7.083 6.312-7.358 4.98-.376 5.976 3.126 4.773 7.168zm3.348 7.105s2.301-5.588 2.823-8.814c.713-4.319-1.45-10.585-9.804-10.585-8.306 0-11.914 5.981-13.29 12.484-1.376 6.55.427 12.293 8.686 12.246l6.516-.024 6.089-.022a.59.59 0 00.534-.414l1.061-4.046c.059-.228-.084-.414-.319-.416l-1.017-.006-1.017-.006c-.199-.001-.313-.131-.289-.302l.027-.095zm41.12-3.741a.28.28 0 11-.56.001.28.28 0 01.56-.001z"/></symbol><symbol id="icon-bootstrap" viewBox="0 0 128 128"><path fill="#5B4282" d="M75.701 65.603c-2.334-.768-5.694-.603-10.08-.603H48v23h18.844c2.944 0 5.012-.315 6.203-.535 2.099-.376 3.854-1.104 5.264-1.982 1.409-.876 2.568-2.205 3.478-3.881.908-1.676 1.363-3.637 1.363-5.83 0-2.568-.658-4.54-1.975-6.436-1.316-1.896-3.141-2.965-5.476-3.733zm-2.419-10.516c2.317-.688 4.064-1.89 5.239-3.487 1.176-1.598 1.763-3.631 1.763-6.044 0-2.286-.549-4.314-1.646-6.054s-2.662-2.413-4.699-3.056c-2.037-.641-5.53-.446-10.48-.446H48v20h16.587c4.042 0 6.939-.38 8.695-.913zM126 18.625C126 9.443 118.557 2 109.375 2h-91.75C8.443 2 1 9.443 1 18.625v91.75C1 119.557 8.443 127 17.625 127h91.75c9.182 0 16.625-7.443 16.625-16.625v-91.75zm-35.447 66.12c-1.362 2.773-3.047 4.911-5.052 6.415-2.006 1.504-4.521 2.78-7.544 3.548C74.935 95.477 71.229 96 66.844 96H39V27h27.42c5.264 0 9.485.609 12.665 2.002 3.181 1.395 5.671 3.497 7.474 6.395 1.801 2.898 2.702 5.907 2.702 9.071 0 2.945-.8 5.708-2.397 8.308-1.598 2.602-4.011 4.694-7.237 6.292 4.166 1.222 7.37 3.304 9.61 6.248 2.24 2.945 3.36 6.422 3.36 10.432 0 3.227-.681 6.225-2.044 8.997z"/></symbol><symbol id="icon-linux" viewBox="0 0 128 128"><path fill-rule="evenodd" clip-rule="evenodd" d="M113.823 104.595c-1.795-1.478-3.629-2.921-5.308-4.525-1.87-1.785-3.045-3.944-2.789-6.678.147-1.573-.216-2.926-2.113-3.452.446-1.154.864-1.928 1.033-2.753.188-.92.178-1.887.204-2.834.264-9.96-3.334-18.691-8.663-26.835-2.454-3.748-5.017-7.429-7.633-11.066-4.092-5.688-5.559-12.078-5.633-18.981a47.564 47.564 0 00-1.081-9.475C80.527 11.956 77.291 7.233 71.422 4.7c-4.497-1.942-9.152-2.327-13.901-1.084-6.901 1.805-11.074 6.934-10.996 14.088.074 6.885.417 13.779.922 20.648.288 3.893-.312 7.252-2.895 10.34-2.484 2.969-4.706 6.172-6.858 9.397-1.229 1.844-2.317 3.853-3.077 5.931-2.07 5.663-3.973 11.373-7.276 16.5-1.224 1.9-1.363 4.026-.494 6.199.225.563.363 1.429.089 1.882-2.354 3.907-5.011 7.345-10.066 8.095-3.976.591-4.172 1.314-4.051 5.413.1 3.337.061 6.705-.28 10.021-.363 3.555.008 4.521 3.442 5.373 7.924 1.968 15.913 3.647 23.492 6.854 3.227 1.365 6.465.891 9.064-1.763 2.713-2.771 6.141-3.855 9.844-3.859 6.285-.005 12.572.298 18.86.369 1.702.02 2.679.653 3.364 2.199.84 1.893 2.26 3.284 4.445 3.526 4.193.462 8.013-.16 11.19-3.359 3.918-3.948 8.436-7.066 13.615-9.227 1.482-.619 2.878-1.592 4.103-2.648 2.231-1.922 2.113-3.146-.135-5zM62.426 24.12c.758-2.601 2.537-4.289 5.243-4.801 2.276-.43 4.203.688 5.639 3.246 1.546 2.758 2.054 5.64.734 8.658-1.083 2.474-1.591 2.707-4.123 1.868-.474-.157-.937-.343-1.777-.652.708-.594 1.154-1.035 1.664-1.382 1.134-.772 1.452-1.858 1.346-3.148-.139-1.694-1.471-3.194-2.837-3.175-1.225.017-2.262 1.167-2.4 2.915-.086 1.089.095 2.199.173 3.589-3.446-1.023-4.711-3.525-3.662-7.118zm-12.75-2.251c1.274-1.928 3.197-2.314 5.101-1.024 2.029 1.376 3.547 5.256 2.763 7.576-.285.844-1.127 1.5-1.716 2.241l-.604-.374c-.23-1.253-.276-2.585-.757-3.733-.304-.728-1.257-1.184-1.919-1.762-.622.739-1.693 1.443-1.757 2.228-.088 1.084.477 2.28.969 3.331.311.661 1.001 1.145 1.713 1.916l-1.922 1.51c-3.018-2.7-3.915-8.82-1.871-11.909zM87.34 86.075c-.203 2.604-.5 2.713-3.118 3.098-1.859.272-2.359.756-2.453 2.964a101.744 101.744 0 00-.012 7.753c.061 1.77-.537 3.158-1.755 4.393-6.764 6.856-14.845 10.105-24.512 8.926-4.17-.509-6.896-3.047-9.097-6.639.98-.363 1.705-.607 2.412-.894 3.122-1.27 3.706-3.955 1.213-6.277-1.884-1.757-3.986-3.283-6.007-4.892-1.954-1.555-3.934-3.078-5.891-4.629-1.668-1.323-2.305-3.028-2.345-5.188-.094-5.182.972-10.03 3.138-14.747 1.932-4.209 3.429-8.617 5.239-12.885.935-2.202 1.906-4.455 3.278-6.388 1.319-1.854 2.134-3.669 1.988-5.94-.084-1.276-.016-2.562-.016-3.843l.707-.352c1.141.985 2.302 1.949 3.423 2.959 4.045 3.646 7.892 3.813 12.319.67 1.888-1.341 3.93-2.47 5.927-3.652.497-.294 1.092-.423 1.934-.738 2.151 5.066 4.262 10.033 6.375 15 1.072 2.524 1.932 5.167 3.264 7.547 2.671 4.775 4.092 9.813 4.07 15.272-.012 2.83.137 5.67-.081 8.482z"/></symbol><symbol id="icon-mysql" viewBox="0 0 128 128"><path fill="#00618A" d="M2.001 90.458h4.108V74.235l6.36 14.143c.75 1.712 1.777 2.317 3.792 2.317s3.003-.605 3.753-2.317l6.36-14.143v16.223h4.108V74.262c0-1.58-.632-2.345-1.936-2.739-3.121-.974-5.215-.131-6.163 1.976l-6.241 13.958-6.043-13.959c-.909-2.106-3.042-2.949-6.163-1.976C2.632 71.917 2 72.681 2 74.261v16.197zm31.898-13.206h4.107v8.938c-.038.485.156 1.625 2.406 1.661 1.148.018 8.862 0 8.934 0V77.208h4.117c.019 0-.004 14.514-.004 14.574.022 3.58-4.441 4.357-6.499 4.417H33.988v-2.764c.022 0 12.963.003 12.995-.001 2.645-.279 2.332-1.593 2.331-2.035v-1.078h-8.731c-4.062-.037-6.65-1.81-6.683-3.85-.002-.187.089-9.129-.001-9.219zM56.63 90.458h11.812c1.383 0 2.727-.289 3.793-.789 1.777-.816 2.646-1.922 2.646-3.372v-3.002c0-1.185-.987-2.292-2.923-3.028-1.027-.396-2.292-.605-3.517-.605h-4.978c-1.659 0-2.449-.5-2.646-1.606-.039-.132-.039-.237-.039-.369v-1.87c0-.105 0-.211.039-.342.197-.843.632-1.08 2.094-1.212l.395-.026h11.733v-2.738H63.504c-1.659 0-2.528.105-3.318.342-2.449.764-3.517 1.975-3.517 4.082v2.396c0 1.844 2.095 3.424 5.61 3.793.396.025.79.053 1.185.053h4.267c.158 0 .316 0 .435.025 1.304.105 1.856.343 2.252.816a.98.98 0 01.315.737v2.397c0 .289-.197.658-.592.974-.355.316-.948.527-1.738.58l-.435.026H56.63v2.738zm43.881-4.766c0 2.817 2.094 4.397 6.32 4.714.395.026.79.052 1.185.052h10.706V87.72h-10.784c-2.41 0-3.318-.606-3.318-2.055V71.497h-4.108v14.195zm-23.008.142v-9.765c0-2.48 1.742-3.985 5.186-4.46a7.8 7.8 0 011.108-.079h7.799c.396 0 .752.026 1.147.079 3.444.475 5.187 1.979 5.187 4.46v9.765c0 2.014-.74 3.09-2.445 3.792l4.048 3.653h-4.771l-3.274-2.956-3.296.209h-4.395a9.075 9.075 0 01-2.414-.343c-2.613-.712-3.88-2.085-3.88-4.355zm4.435-.237c0 .132.039.265.079.423.237 1.135 1.307 1.768 2.929 1.768h3.732l-3.428-3.095h4.771l2.989 2.7c.552-.295.914-.743 1.041-1.32.039-.132.039-.264.039-.396v-9.368c0-.105 0-.238-.039-.37-.238-1.056-1.307-1.662-2.89-1.662h-6.216c-1.82 0-3.008.792-3.008 2.032v9.288zm40.398-18.645c-2.525-.069-4.454.166-6.104.861-.469.198-1.216.203-1.292.79.257.271.297.674.502 1.006.394.637 1.059 1.491 1.652 1.938.647.489 1.315 1.013 2.011 1.437 1.235.754 2.615 1.184 3.806 1.938.701.446 1.397 1.006 2.082 1.509.339.247.565.634 1.006.789v-.071c-.231-.294-.291-.698-.503-1.006l-.934-.934c-.913-1.212-2.071-2.275-3.304-3.159-.982-.705-3.18-1.658-3.59-2.801l-.072-.071c.696-.079 1.512-.331 2.154-.503 1.08-.29 2.045-.215 3.16-.503l1.508-.432v-.286c-.563-.578-.966-1.344-1.58-1.867-1.607-1.369-3.363-2.737-5.17-3.879-1.002-.632-2.241-1.043-3.304-1.579-.356-.181-.984-.274-1.221-.575-.559-.711-.862-1.612-1.293-2.441a93.068 93.068 0 01-2.585-5.458c-.544-1.245-.9-2.473-1.579-3.59-3.261-5.361-6.771-8.597-12.208-11.777-1.157-.677-2.55-.943-4.021-1.292l-2.37-.144c-.481-.201-.983-.791-1.436-1.077-1.802-1.138-6.422-3.613-7.756-.358-.842 2.054 1.26 4.058 2.011 5.099.527.73 1.203 1.548 1.58 2.369.248.54.29 1.081.503 1.652.521 1.406.976 2.937 1.651 4.236.341.658.718 1.351 1.149 1.939.264.36.718.52.789 1.077-.443.62-.469 1.584-.718 2.369-1.122 3.539-.699 7.938.934 10.557.501.805 1.681 2.529 3.303 1.867 1.419-.578 1.103-2.369 1.509-3.95.092-.357.035-.621.215-.861v.072l1.293 2.585c.957 1.541 2.654 3.15 4.093 4.237.746.563 1.334 1.538 2.298 1.867v-.073h-.071c-.188-.291-.479-.411-.719-.646-.562-.551-1.187-1.235-1.651-1.867-1.309-1.776-2.465-3.721-3.519-5.745-.503-.966-.94-2.032-1.364-3.016-.164-.379-.162-.953-.502-1.148-.466.72-1.149 1.303-1.509 2.154-.574 1.36-.648 3.019-.861 4.739l-.144.071c-1.001-.241-1.352-1.271-1.724-2.154-.94-2.233-1.115-5.83-.287-8.401.214-.666 1.181-2.761.789-3.376-.187-.613-.804-.967-1.148-1.437a11.222 11.222 0 01-1.149-2.011c-.77-1.741-1.129-3.696-1.938-5.457-.388-.842-1.042-1.693-1.58-2.441-.595-.83-1.262-1.44-1.724-2.442-.164-.356-.387-.927-.144-1.293.077-.247.188-.35.432-.431.416-.321 1.576.107 2.01.287 1.152.479 2.113.934 3.089 1.58.468.311.941.911 1.508 1.077h.646c1.011.232 2.144.071 3.088.358 1.67.508 3.166 1.297 4.524 2.155 4.139 2.614 7.522 6.334 9.838 10.772.372.715.534 1.396.861 2.154.662 1.528 1.496 3.101 2.154 4.596.657 1.491 1.298 2.996 2.227 4.237.488.652 2.374 1.002 3.231 1.364.601.254 1.585.519 2.154.861 1.087.656 2.141 1.437 3.16 2.155.509.362 2.076 1.149 2.154 1.798zM90.237 39.593a5.124 5.124 0 00-1.293.144v.071h.072c.251.517.694.849 1.005 1.293l.719 1.508.071-.071c.445-.313.648-.814.646-1.58-.179-.188-.205-.423-.359-.646-.204-.3-.602-.468-.861-.719z"/></symbol><symbol id="icon-git" viewBox="0 0 128 128"><path fill="#F34F29" d="M76.004 50.588c-7.655 0-11.459 3.996-11.459 9.75 0 3.704 1.852 6.328 4.304 7.529-1.201 1.101-2.201 2.064-3.102 3.014-.902.952-1.452 1.957-1.452 3.059 0 1.352.55 2.605 2.202 3.303-1.751 1.654-2.753 2.854-2.753 5.107 0 3.953 3.453 6.256 12.511 6.256 8.708 0 13.761-3.251 13.761-9.007 0-6.653-5.103-6.904-13.761-7.456l-4.904-.3 1.652-2.652c.899.25 2.352.45 3.955.45 6.304 0 10.658-3.252 10.658-8.808 0-2.302-1.137-3.903-2.037-5.055l4.421-.35V51h-9.391c-1.15 0-2.453-.412-4.605-.412zm2.252 28.511c2.404.15 4.306.25 4.306 1.854 0 2.699-3.955 2.902-6.856 2.902-3.504 0-6.056-.602-6.056-2.603 0-1.002.65-1.852 1.302-2.652l7.304.499zm-1.949-14.712c-3.304 0-4.655-1.703-4.655-4.154 0-3.253 2.051-4.605 4.804-4.605 2.852 0 4.554 1.552 4.554 4.504 0 2.604-1.902 4.255-4.703 4.255zm22.866-17.702c2.902 0 4.554-1.652 4.554-4.506 0-2.85-1.652-4.403-4.554-4.403-2.853 0-4.505 1.553-4.505 4.403 0 2.853 1.652 4.506 4.505 4.506zM103 71.455V51h-9.733l-.55 3.896 2.667.874c.502.149.616.423.616.973v14.712c0 .752-.422.902-1.123 1.003l-2.877.35V77h15v-4.192l-2.876-.35c-.753-.101-1.124-.2-1.124-1.003zm22.418-1.04c-1.202.45-2.632.799-4.035.799-2.701 0-3.383-1.15-3.383-4.103V55h7v-5h-6.638c-.401 0-.362-.003-.362-.353V43h-4.793c-.55 5-3.207 7.196-7.207 7.698V55h4.003c.401 0-.003.353-.003.652v13.111c0 5.657 2.454 8.058 8.408 8.058 2.854 0 6.107-.951 8.26-2.001l-1.25-4.405zm-95.68-31.609a3.375 3.375 0 00-4.773 0l-4.751 4.751 6.027 6.027a4.007 4.007 0 015.076 5.11l5.809 5.809a4.012 4.012 0 014.149 6.632 4.014 4.014 0 01-5.68 0c-1.18-1.181-1.624-2.914-1.025-4.368L29 57.35v14.257c0 .189.895.441 1.214.759 1.568 1.568 1.644 4.11.075 5.681a3.972 3.972 0 01-5.642 0c-1.568-1.571-1.549-4.112.02-5.681.388-.387.333-.68 1.333-.876V57.101c-1-.196-.927-.487-1.314-.876a4.016 4.016 0 01-.865-4.39l-5.942-5.943L2.19 61.581a3.374 3.374 0 000 4.774l22.882 22.881a3.377 3.377 0 004.773 0L52.62 66.46a3.378 3.378 0 000-4.774l-22.882-22.88z"/></symbol><symbol id="icon-sass" viewBox="0 0 128 128"><path fill-rule="evenodd" clip-rule="evenodd" fill="#CB6699" d="M1.219 56.156c0 .703.207 1.167.323 1.618.756 2.933 2.381 5.45 4.309 7.746 2.746 3.272 6.109 5.906 9.554 8.383 2.988 2.148 6.037 4.248 9.037 6.38.515.366 1.002.787 1.561 1.236-.481.26-.881.489-1.297.7-3.959 2.008-7.768 4.259-11.279 6.986-2.116 1.644-4.162 3.391-5.607 5.674-2.325 3.672-3.148 7.584-1.415 11.761.506 1.22 1.278 2.274 2.367 3.053.353.252.749.502 1.162.6 1.058.249 2.136.412 3.207.609l3.033-.002c3.354-.299 6.407-1.448 9.166-3.352 4.312-2.976 7.217-6.966 8.466-12.087.908-3.722.945-7.448-.125-11.153a11.696 11.696 0 00-.354-1.014c-.13-.333-.283-.657-.463-1.072l6.876-3.954.103.088c-.125.409-.258.817-.371 1.23-.817 2.984-1.36 6.02-1.165 9.117.208 3.3 1.129 6.389 3.061 9.146 1.562 2.23 5.284 2.313 6.944.075.589-.795 1.16-1.626 1.589-2.513 1.121-2.315 2.159-4.671 3.23-7.011l.187-.428c-.077 1.108-.167 2.081-.208 3.055-.064 1.521.025 3.033.545 4.48.445 1.238 1.202 2.163 2.62 2.326.97.111 1.743-.333 2.456-.896a10.384 10.384 0 002.691-3.199c1.901-3.491 3.853-6.961 5.576-10.54 1.864-3.871 3.494-7.855 5.225-11.792l.286-.698c.409 1.607.694 3.181 1.219 4.671.61 1.729 1.365 3.417 2.187 5.058.389.775.344 1.278-.195 1.928-2.256 2.72-4.473 5.473-6.692 8.223-.491.607-.98 1.225-1.389 1.888a3.701 3.701 0 00-.48 1.364 1.737 1.737 0 001.383 1.971 9.661 9.661 0 002.708.193c3.097-.228 5.909-1.315 8.395-3.157 3.221-2.386 4.255-5.642 3.475-9.501-.211-1.047-.584-2.065-.947-3.074-.163-.455-.174-.774.123-1.198 2.575-3.677 4.775-7.578 6.821-11.569.081-.157.164-.314.306-.482.663 3.45 1.661 6.775 3.449 9.792-.912.879-1.815 1.676-2.632 2.554-1.799 1.934-3.359 4.034-4.173 6.595-.35 1.104-.619 2.226-.463 3.405.242 1.831 1.742 3.021 3.543 2.604 3.854-.892 7.181-2.708 9.612-5.925 1.636-2.166 1.785-4.582 1.1-7.113-.188-.688-.411-1.365-.651-2.154.951-.295 1.878-.649 2.837-.868 4.979-1.136 9.904-.938 14.702.86 2.801 1.05 5.064 2.807 6.406 5.571 1.639 3.379.733 6.585-2.452 8.721-.297.199-.637.356-.883.605a.869.869 0 00-.205.67c.021.123.346.277.533.275 1.047-.008 1.896-.557 2.711-1.121 2.042-1.413 3.532-3.314 3.853-5.817l.063-.188-.077-1.63c-.031-.094.023-.187.016-.258-.434-3.645-2.381-6.472-5.213-8.688-3.28-2.565-7.153-3.621-11.249-3.788a25.401 25.401 0 00-9.765 1.503c-.897.325-1.786.71-2.688 1.073-.121-.219-.251-.429-.358-.646-.926-1.896-2.048-3.708-2.296-5.882-.176-1.544-.392-3.086-.025-4.613.353-1.469.813-2.913 1.246-4.362.223-.746.066-1.164-.646-1.5a2.854 2.854 0 00-.786-.258c-1.75-.254-3.476-.109-5.171.384-.6.175-1.036.511-1.169 1.175-.076.381-.231.746-.339 1.122-.443 1.563-.757 3.156-1.473 4.645-1.794 3.735-3.842 7.329-5.938 10.897-.227.385-.466.763-.752 1.23-.736-1.54-1.521-2.922-1.759-4.542-.269-1.832-.481-3.661-.025-5.479.339-1.356.782-2.687 1.19-4.025.193-.636.104-.97-.472-1.305-.291-.169-.62-.319-.948-.368a11.643 11.643 0 00-5.354.438c-.543.176-.828.527-.994 1.087-.488 1.652-.904 3.344-1.589 4.915-2.774 6.36-5.628 12.687-8.479 19.013-.595 1.321-1.292 2.596-1.963 3.882-.17.326-.418.613-.63.919-.17-.201-.236-.339-.235-.477.005-.813-.092-1.65.063-2.436a172.189 172.189 0 011.578-7.099c.47-1.946 1.017-3.874 1.538-5.807.175-.647.178-1.252-.287-1.796-.781-.911-2.413-1.111-3.381-.409l-.428.242.083-.69c.204-1.479.245-2.953-.161-4.41-.506-1.816-1.802-2.861-3.686-2.803-.878.027-1.8.177-2.613.497-3.419 1.34-6.048 3.713-8.286 6.568a2.592 2.592 0 01-.757.654c-2.893 1.604-5.795 3.188-8.696 4.778l-3.229 1.769c-.866-.826-1.653-1.683-2.546-2.41-2.727-2.224-5.498-4.393-8.244-6.592-2.434-1.949-4.792-3.979-6.596-6.56-1.342-1.92-2.207-4.021-2.29-6.395-.105-3.025.753-5.789 2.293-8.362 1.97-3.292 4.657-5.934 7.611-8.327 3.125-2.53 6.505-4.678 10.008-6.639 4.901-2.743 9.942-5.171 15.347-6.774 5.542-1.644 11.165-2.585 16.965-1.929 2.28.258 4.494.78 6.527 1.895 1.557.853 2.834 1.97 3.428 3.716.586 1.718.568 3.459.162 5.204-.825 3.534-2.76 6.447-5.195 9.05-3.994 4.267-8.866 7.172-14.351 9.091a39.478 39.478 0 01-9.765 2.083c-2.729.229-5.401-.013-7.985-.962-1.711-.629-3.201-1.591-4.399-2.987-.214-.25-.488-.521-.887-.287-.391.23-.46.602-.329.979.219.626.421 1.278.762 1.838.857 1.405 2.107 2.424 3.483 3.298 2.643 1.681 5.597 2.246 8.66 2.377 4.648.201 9.183-.493 13.654-1.74 6.383-1.78 11.933-4.924 16.384-9.884 3.706-4.13 6.353-8.791 6.92-14.419.277-2.747-.018-5.438-1.304-7.944-1.395-2.715-3.613-4.734-6.265-6.125C68.756 18.179 64.588 17 60.286 17h-4.31c-5.21 0-10.247 1.493-15.143 3.274-3.706 1.349-7.34 2.941-10.868 4.703-7.683 3.839-14.838 8.468-20.715 14.833-2.928 3.171-5.407 6.67-6.833 10.79a40.494 40.494 0 00-1.111 3.746m27.839 36.013c-.333 4.459-2.354 8.074-5.657 11.002-1.858 1.646-3.989 2.818-6.471 3.23-.9.149-1.821.185-2.694-.188-1.245-.532-1.524-1.637-1.548-2.814-.037-1.876.62-3.572 1.521-5.186 1.176-2.104 2.9-3.708 4.741-5.206 2.9-2.361 6.046-4.359 9.268-6.245l.243-.1c.498 1.84.735 3.657.597 5.507zM54.303 70.98c-.235 1.424-.529 2.849-.945 4.229-1.438 4.777-3.285 9.406-5.282 13.973-.369.845-.906 1.616-1.373 2.417a1.689 1.689 0 01-.283.334c-.578.571-1.126.541-1.418-.206-.34-.868-.549-1.797-.729-2.716-.121-.617-.092-1.265-.13-1.897.039-4.494 1.41-8.578 3.736-12.38.959-1.568 2.003-3.062 3.598-4.054a6.27 6.27 0 011.595-.706c.85-.239 1.372.154 1.231 1.006zm17.164 21.868l6.169-7.203c.257 2.675-4.29 8.015-6.169 7.203zm19.703-4.847c-.436.25-.911.43-1.358.661-.409.212-.544-.002-.556-.354a2.385 2.385 0 01.093-.721c.833-2.938 2.366-5.446 4.647-7.486l.16-.082c1.085 3.035-.169 6.368-2.986 7.982z"/></symbol></defs></svg>